#!OML:ASF E:\motion texture\Top Level 1\Subject 1\Session 1\male.ASF
:FULLY-SPECIFIED
:DEGREES
207
root 2.93505 18.0845 5.99127 82.3402 -80.8033 -76.5333
lowerback -1.84838 0.862434 5.82736
upperback -3.08331 1.06721 3.26092
thorax -2.09634 0.398422 0.097613
lowerneck -9.05412 -5.65739 -8.09805
upperneck 14.9169 -7.04417 2.82351
head 6.41847 -3.69363 1.61717
rclavicle -9.2994e-015 1.00386e-014
rhumerus -6.69934 23.9865 -76.5726
rradius 85.7015
rwrist 11.4415
rhand -12.7761 -14.9326
rfingers 7.12502
rthumb 13.3091 -44.4876
lclavicle -9.2994e-015 1.00386e-014
lhumerus -9.10466 -23.3397 88.7879
lradius 78.9715
lwrist -17.8891
lhand -14.4214 15.4779
lfingers 7.12502
lthumb 11.7227 45.1299
rfemur -9.26858 -0.121499 34.431
rtibia 14.1557
rfoot -7.79047 -13.731
rtoes 19.7002
lfemur -26.6309 -1.32155 -6.71568
ltibia 60.8505
lfoot -4.49578 0.281201
ltoes -15.1393
208
root 2.79917 18.0878 5.98157 84.3612 -80.8128 -78.5124
lowerback -1.80407 0.938335 5.98566
upperback -3.12186 1.17242 3.21574
thorax -2.15362 0.444703 -0.0371683
lowerneck -9.0529 -5.61368 -8.03103
upperneck 14.8584 -7.00177 2.88204
head 6.39642 -3.66399 1.62988
rclavicle 6.92563e-015 2.9122e-014
rhumerus -7.22359 23.9485 -77.0909
rradius 85.2891
rwrist 11.2017
rhand -12.4989 -15.1891
rfingers 7.12502
rthumb 13.5762 -44.7265
lclavicle 6.92563e-015 2.9122e-014
lhumerus -9.89899 -23.2173 88.66
lradius 78.629
lwrist -17.4508
lhand -14.1612 15.541
lfingers 7.12502
lthumb 11.9737 45.1786
rfemur -8.59985 0.0806623 34.5702
rtibia 13.7854
rfoot -8.00178 -13.6797
rtoes 19.36
lfemur -27.3725 -1.07507 -6.66707
ltibia 60.0711
lfoot -5.30194 0.631798
ltoes -15.158
209
root 2.66394 18.0893 5.97247 86.385 -80.8055 -80.4782
lowerback -1.76464 1.01167 6.1458
upperback -3.16171 1.27387 3.17517
thorax -2.20912 0.488881 -0.168272
lowerneck -9.0659 -5.56948 -7.96673
upperneck 14.7961 -6.95584 2.93577
head 6.37539 -3.63287 1.64144
rclavicle 3.89105e-015 -4.91992e-014
rhumerus -7.75995 23.9205 -77.6106
rradius 84.827
rwrist 10.8988
rhand -12.2696 -15.469
rfingers 7.12502
rthumb 13.7972 -44.9914
lclavicle 3.89105e-015 -4.91992e-014
lhumerus -10.7183 -23.0639 88.5597
lradius 78.2218
lwrist -16.9817
lhand -13.9009 15.6015
lfingers 7.12502
lthumb 12.2247 45.2242
rfemur -7.96994 0.295325 34.7163
rtibia 13.4504
rfoot -8.22031 -13.6535
rtoes 18.9894
lfemur -28.0886 -0.822927 -6.60173
ltibia 59.1596
lfoot -6.01946 0.975338
ltoes -15.2132
210
root 2.52918 18.089 5.96414 88.4162 -80.7922 -82.4357
lowerback -1.72764 1.08292 6.2991
upperback -3.20698 1.37272 3.13566
thorax -2.26853 0.531528 -0.294563
lowerneck -9.08269 -5.52324 -7.91111
upperneck 14.7304 -6.90553 2.99137
head 6.35409 -3.59987 1.65528
rclavicle -1.96145e-015 3.19546e-014
rhumerus -8.31914 23.9051 -78.1365
rradius 84.3096
rwrist 10.5428
rhand -12.0818 -15.7979
rfingers 7.12502
rthumb 13.9782 -45.308
lclavicle -1.96145e-015 3.19546e-014
lhumerus -11.5674 -22.8783 88.4897
lradius 77.7412
lwrist -16.4835
lhand -13.6587 15.6571
lfingers 7.12502
lthumb 12.4582 45.2658
rfemur -7.37979 0.518646 34.8557
rtibia 13.153
rfoot -8.44409 -13.6514
rtoes 18.5752
lfemur -28.7772 -0.569767 -6.53379
ltibia 58.1218
lfoot -6.6479 1.31679
ltoes -15.2763
211
root 2.39542 18.0871 5.95647 90.3723 -80.7763 -84.3032
lowerback -1.6897 1.14595 6.44185
upperback -3.25516 1.46108 3.09651
thorax -2.33169 0.56888 -0.414769
lowerneck -9.10679 -5.47437 -7.86215
upperneck 14.6579 -6.84927 3.04522
head 6.3318 -3.56428 1.67
rclavicle -7.09296e-015 -3.24516e-014
rhumerus -8.89019 23.9062 -78.6673
rradius 83.7254
rwrist 10.1433
rhand -11.9322 -16.1445
rfingers 7.12502
rthumb 14.1224 -45.6446
lclavicle -7.09296e-015 -3.24516e-014
lhumerus -12.4399 -22.6491 88.447
lradius 77.18
lwrist -15.9643
lhand -13.4413 15.7075
lfingers 7.12502
lthumb 12.6678 45.3033
rfemur -6.83277 0.739917 34.9835
rtibia 12.8961
rfoot -8.66765 -13.6784
rtoes 18.0841
lfemur -29.4373 -0.328866 -6.46767
ltibia 56.9562
lfoot -7.20314 1.64232
ltoes -15.4385
